<svg width="48" height="263" viewBox="0 0 48 263" fill="none" xmlns="http://www.w3.org/2000/svg">
<g clip-path="url(#clip0)">
<path d="M13.2456 32.5017L9.78418 40.8578L15.7927 40.4946L19.7841 45L23.2321 36.6765C19.4834 36.2381 16.0529 34.7446 13.2456 32.5017Z" fill="#25458F"/>
<path d="M27.8418 36.6765L31.2894 45L35.2813 40.4946L41.2898 40.8578L37.8284 32.5017C35.021 34.7446 31.5905 36.2381 27.8418 36.6765Z" fill="#25458F"/>
<path d="M25.5367 34.1754C34.9589 34.1754 42.6246 26.51 42.6246 17.0879C42.6246 7.66571 34.9589 0 25.5367 0C16.1149 0 8.44922 7.66571 8.44922 17.0875C8.44922 26.5097 16.1149 34.1754 25.5367 34.1754ZM25.5367 4.39556C32.5354 4.39556 38.229 10.0892 38.229 17.0879C38.229 24.0862 32.5354 29.7798 25.5367 29.7798C18.5384 29.7798 12.8448 24.0862 12.8448 17.0875C12.8448 10.0892 18.5384 4.39556 25.5367 4.39556Z" fill="#25458F"/>
<path d="M23.734 12.53C23.4167 12.642 22.8473 12.7913 22.026 12.978C21.2047 13.146 20.5607 13.258 20.094 13.314L19.786 11.354C20.794 11.1487 21.8393 10.7847 22.922 10.262C24.0233 9.72067 24.9193 9.16067 25.61 8.582H25.638L27.85 8.89V24.29L31.042 24.598V26.25H20.374V24.598L23.734 24.318V12.53Z" fill="#25458F"/>
</g>
<g clip-path="url(#clip1)">
<path d="M13.2456 136.502L9.78418 144.858L15.7927 144.495L19.7841 149L23.2321 140.676C19.4834 140.238 16.0529 138.745 13.2456 136.502Z" fill="#25458F"/>
<path d="M27.8418 140.676L31.2894 149L35.2813 144.495L41.2898 144.858L37.8284 136.502C35.021 138.745 31.5905 140.238 27.8418 140.676Z" fill="#25458F"/>
<path d="M25.5367 138.175C34.9589 138.175 42.6246 130.51 42.6246 121.088C42.6246 111.666 34.9589 104 25.5367 104C16.1149 104 8.44922 111.666 8.44922 121.088C8.44922 130.51 16.1149 138.175 25.5367 138.175ZM25.5367 108.396C32.5354 108.396 38.229 114.089 38.229 121.088C38.229 128.086 32.5354 133.78 25.5367 133.78C18.5384 133.78 12.8448 128.086 12.8448 121.088C12.8448 114.089 18.5384 108.396 25.5367 108.396Z" fill="#25458F"/>
<path d="M18.314 128.738C20.9087 127.207 23.0367 125.518 24.698 123.67C26.3593 121.822 27.19 120.039 27.19 118.322C27.19 117.407 26.9007 116.679 26.322 116.138C25.762 115.578 24.9687 115.298 23.942 115.298C22.9713 115.298 22.15 115.485 21.478 115.858C20.8247 116.213 20.1807 116.679 19.546 117.258L18.482 115.718C18.8553 115.251 19.3873 114.775 20.078 114.29C20.7873 113.805 21.6087 113.403 22.542 113.086C23.4753 112.75 24.418 112.582 25.37 112.582C26.7327 112.582 27.8713 112.815 28.786 113.282C29.7193 113.749 30.41 114.365 30.858 115.13C31.306 115.895 31.53 116.745 31.53 117.678C31.53 119.47 30.6713 121.271 28.954 123.082C27.2367 124.893 25.0527 126.554 22.402 128.066L30.522 127.31L31.586 124.958L33.35 125.322L32.538 130.25H18.902L18.314 128.738Z" fill="#25458F"/>
</g>
<g clip-path="url(#clip2)">
<path d="M10.2456 250.502L6.78418 258.858L12.7927 258.495L16.7841 263L20.2321 254.676C16.4834 254.238 13.0529 252.745 10.2456 250.502Z" fill="#25458F"/>
<path d="M24.8418 254.676L28.2894 263L32.2813 258.495L38.2898 258.858L34.8284 250.502C32.021 252.745 28.5905 254.238 24.8418 254.676Z" fill="#25458F"/>
<path d="M22.5367 252.175C31.9589 252.175 39.6246 244.51 39.6246 235.088C39.6246 225.666 31.9589 218 22.5367 218C13.1149 218 5.44922 225.666 5.44922 235.088C5.44922 244.51 13.1149 252.175 22.5367 252.175ZM22.5367 222.396C29.5354 222.396 35.229 228.089 35.229 235.088C35.229 242.086 29.5354 247.78 22.5367 247.78C15.5384 247.78 9.84478 242.086 9.84478 235.088C9.84478 228.089 15.5384 222.396 22.5367 222.396Z" fill="#25458F"/>
<path d="M19.732 247.23C19.1907 247.23 18.5933 247.183 17.94 247.09C17.3053 247.015 16.7827 246.922 16.372 246.81V244.738C17.156 244.981 17.996 245.102 18.892 245.102C20.1987 245.102 21.328 244.887 22.28 244.458C23.2507 244.029 23.988 243.45 24.492 242.722C24.996 241.994 25.248 241.191 25.248 240.314C25.248 239.119 24.8933 238.195 24.184 237.542C23.4747 236.889 22.42 236.543 21.02 236.506L19.34 236.926L18.752 235.218C19.5173 235.087 20.2733 234.854 21.02 234.518C22.1027 234.033 22.9427 233.426 23.54 232.698C24.1373 231.951 24.436 231.158 24.436 230.318C24.436 229.385 24.1467 228.703 23.568 228.274C23.008 227.845 22.2893 227.63 21.412 227.63C20.5907 227.63 19.816 227.77 19.088 228.05C18.3787 228.33 17.772 228.675 17.268 229.086L16.288 227.378C16.8293 226.855 17.7067 226.342 18.92 225.838C20.152 225.334 21.4027 225.082 22.672 225.082C24.4453 225.082 25.8827 225.465 26.984 226.23C28.104 226.977 28.664 228.115 28.664 229.646C28.664 230.99 28.1413 232.175 27.096 233.202C26.0507 234.229 24.772 235.013 23.26 235.554C23.4467 235.535 23.7267 235.526 24.1 235.526C25.7613 235.526 27.1053 235.946 28.132 236.786C29.1773 237.626 29.7 238.746 29.7 240.146C29.7187 241.49 29.3173 242.694 28.496 243.758C27.6933 244.841 26.536 245.69 25.024 246.306C23.512 246.922 21.748 247.23 19.732 247.23Z" fill="#25458F"/>
</g>
<defs>
<clipPath id="clip0">
<rect width="45" height="45" fill="white" transform="translate(3)"/>
</clipPath>
<clipPath id="clip1">
<rect width="45" height="45" fill="white" transform="translate(3 104)"/>
</clipPath>
<clipPath id="clip2">
<rect width="45" height="45" fill="white" transform="translate(0 218)"/>
</clipPath>
</defs>
</svg>
