<svg width="281" height="854" viewBox="0 0 281 854" fill="none" xmlns="http://www.w3.org/2000/svg">
<circle cx="159.5" cy="28.5" r="27" stroke="#F90955" stroke-width="3"/>
<path d="M163.018 44H158.931V16.9077L150.735 19.918V16.2266L162.381 11.854H163.018V44Z" fill="#25458F"/>
<circle cx="160.5" cy="378.5" r="27" stroke="#F90955" stroke-width="3"/>
<path d="M156.569 376.026H159.624C161.542 375.997 163.051 375.492 164.15 374.51C165.249 373.529 165.798 372.203 165.798 370.533C165.798 366.783 163.93 364.908 160.195 364.908C158.437 364.908 157.031 365.414 155.976 366.424C154.936 367.42 154.416 368.746 154.416 370.401H150.351C150.351 367.867 151.274 365.765 153.12 364.095C154.98 362.411 157.338 361.568 160.195 361.568C163.212 361.568 165.578 362.367 167.292 363.963C169.006 365.56 169.863 367.779 169.863 370.621C169.863 372.013 169.409 373.36 168.5 374.664C167.607 375.968 166.384 376.942 164.831 377.586C166.589 378.143 167.944 379.066 168.896 380.355C169.863 381.644 170.346 383.219 170.346 385.079C170.346 387.95 169.409 390.228 167.534 391.913C165.659 393.597 163.22 394.439 160.217 394.439C157.214 394.439 154.768 393.626 152.878 392C151.003 390.375 150.065 388.229 150.065 385.562H154.152C154.152 387.247 154.702 388.595 155.8 389.605C156.899 390.616 158.371 391.122 160.217 391.122C162.18 391.122 163.681 390.609 164.721 389.583C165.761 388.558 166.281 387.086 166.281 385.167C166.281 383.307 165.71 381.878 164.567 380.882C163.425 379.886 161.777 379.374 159.624 379.344H156.569V376.026Z" fill="#25458F"/>
<path d="M104.472 171.882C104.959 171.621 105.142 171.015 104.882 170.528L100.637 162.592C100.376 162.105 99.7704 161.922 99.2834 162.182C98.7964 162.443 98.6128 163.049 98.8733 163.536L102.647 170.59L95.5922 174.363C95.1053 174.624 94.9216 175.23 95.1821 175.717C95.4426 176.204 96.0486 176.387 96.5356 176.127L104.472 171.882ZM66 105L65.0024 104.93L65.0024 104.93L66 105ZM104.573 39.8192C105.026 39.5025 105.136 38.879 104.819 38.4265C104.502 37.9741 103.879 37.8641 103.426 38.1808L104.573 39.8192ZM102.667 38.7171C102.217 39.0377 102.113 39.6621 102.433 40.1119C102.754 40.5616 103.378 40.6663 103.828 40.3457L102.667 38.7171ZM93.1813 49.0871C93.582 48.7071 93.5989 48.0742 93.2189 47.6734C92.8389 47.2726 92.2059 47.2558 91.8052 47.6358L93.1813 49.0871ZM90.457 48.9398C90.0639 49.3277 90.0597 49.9609 90.4477 50.354C90.8356 50.7471 91.4687 50.7513 91.8618 50.3634L90.457 48.9398ZM82.8574 60.7572C83.1842 60.312 83.0883 59.6862 82.6431 59.3593C82.198 59.0325 81.5721 59.1284 81.2452 59.5735L82.8574 60.7572ZM80.151 61.0989C79.834 61.5512 79.9438 62.1748 80.396 62.4917C80.8483 62.8087 81.4719 62.6989 81.7889 62.2467L80.151 61.0989ZM74.8814 74.1262C75.1173 73.6269 74.9038 73.0308 74.4044 72.7948C73.9051 72.5589 73.309 72.7724 73.0731 73.2718L74.8814 74.1262ZM72.2914 74.976C72.0669 75.4806 72.2939 76.0716 72.7984 76.2962C73.303 76.5207 73.8941 76.2937 74.1186 75.7891L72.2914 74.976ZM69.6087 88.7668C69.7463 88.2319 69.4242 87.6867 68.8893 87.5492C68.3545 87.4116 67.8093 87.7336 67.6717 88.2685L69.6087 88.7668ZM67.2234 90.0922C67.0973 90.6299 67.4309 91.168 67.9686 91.2941C68.5063 91.4203 69.0444 91.0866 69.1706 90.5489L67.2234 90.0922ZM67.067 104.146C67.111 103.595 66.7003 103.113 66.1498 103.069C65.5993 103.025 65.1173 103.436 65.0733 103.986L67.067 104.146ZM64.9402 105.905C64.9086 106.456 65.33 106.929 65.8814 106.96C66.4327 106.992 66.9053 106.57 66.9369 106.019L64.9402 105.905ZM67.54 120.131C67.4606 119.584 66.9531 119.205 66.4066 119.285C65.86 119.364 65.4814 119.872 65.5608 120.418L67.54 120.131ZM65.8667 122.337C65.9611 122.881 66.4788 123.246 67.0229 123.151C67.5671 123.057 67.9317 122.539 67.8372 121.995L65.8667 122.337ZM71.6707 135.586C71.4669 135.072 70.8856 134.821 70.3723 135.025C69.859 135.229 69.608 135.81 69.8117 136.323L71.6707 135.586ZM70.5508 138.114C70.7684 138.621 71.3564 138.856 71.864 138.639C72.3715 138.421 72.6066 137.833 72.3889 137.326L70.5508 138.114ZM79.252 149.675C78.9358 149.222 78.3124 149.111 77.8596 149.428C77.4068 149.744 77.2961 150.367 77.6123 150.82L79.252 149.675ZM78.7441 152.394C79.0727 152.838 79.6989 152.931 80.1428 152.603C80.5867 152.274 80.6802 151.648 80.3516 151.204L78.7441 152.394ZM89.9131 161.571C89.4949 161.21 88.8635 161.257 88.5027 161.675C88.142 162.093 88.1885 162.724 88.6067 163.085L89.9131 161.571ZM90.0997 164.331C90.5297 164.677 91.1592 164.61 91.5058 164.18C91.8524 163.75 91.7848 163.12 91.3548 162.773L90.0997 164.331ZM103.422 169.763C102.9 169.584 102.331 169.863 102.152 170.385C101.973 170.908 102.252 171.476 102.774 171.655L103.422 169.763ZM103.426 38.1808C103.175 38.3569 102.922 38.5357 102.667 38.7171L103.828 40.3457C104.078 40.1676 104.326 39.9921 104.573 39.8192L103.426 38.1808ZM91.8052 47.6358C91.3555 48.0621 90.906 48.4968 90.457 48.9398L91.8618 50.3634C92.3012 49.9298 92.7411 49.5044 93.1813 49.0871L91.8052 47.6358ZM81.2452 59.5735C80.8773 60.0747 80.5124 60.5832 80.151 61.0989L81.7889 62.2467C82.1417 61.7431 82.498 61.2466 82.8574 60.7572L81.2452 59.5735ZM73.0731 73.2718C72.8077 73.8334 72.5471 74.4015 72.2914 74.976L74.1186 75.7891C74.3681 75.2285 74.6224 74.6742 74.8814 74.1262L73.0731 73.2718ZM67.6717 88.2685C67.5168 88.8708 67.3673 89.4787 67.2234 90.0922L69.1706 90.5489C69.3112 89.9493 69.4573 89.3553 69.6087 88.7668L67.6717 88.2685ZM65.0733 103.986C65.0483 104.3 65.0247 104.614 65.0024 104.93L66.9975 105.07C67.0193 104.761 67.0424 104.453 67.067 104.146L65.0733 103.986ZM65.0024 104.93C64.9795 105.256 64.9588 105.58 64.9402 105.905L66.9369 106.019C66.955 105.704 66.9752 105.387 66.9975 105.07L65.0024 104.93ZM65.5608 120.418C65.6545 121.063 65.7565 121.702 65.8667 122.337L67.8372 121.995C67.7302 121.378 67.631 120.757 67.54 120.131L65.5608 120.418ZM69.8117 136.323C70.0511 136.926 70.2975 137.523 70.5508 138.114L72.3889 137.326C72.1428 136.752 71.9033 136.172 71.6707 135.586L69.8117 136.323ZM77.6123 150.82C77.9846 151.353 78.3621 151.878 78.7441 152.394L80.3516 151.204C79.9805 150.703 79.6138 150.193 79.252 149.675L77.6123 150.82ZM88.6067 163.085C89.1029 163.513 89.6008 163.928 90.0997 164.331L91.3548 162.773C90.8735 162.385 90.3927 161.985 89.9131 161.571L88.6067 163.085ZM102.774 171.655C103.088 171.762 103.4 171.863 103.71 171.957L104.29 170.043C104.003 169.956 103.714 169.863 103.422 169.763L102.774 171.655ZM104.943 172.764C105.917 172.243 106.285 171.031 105.764 170.057L97.2738 154.185C96.7528 153.211 95.5409 152.843 94.5669 153.364C93.5929 153.885 93.2257 155.097 93.7467 156.071L101.293 170.18L87.1845 177.726C86.2105 178.247 85.8433 179.459 86.3643 180.433C86.8852 181.407 88.0972 181.774 89.0711 181.253L104.943 172.764ZM66 105L64.0049 104.86H64.0049L66 105ZM105.147 40.6385C106.052 40.005 106.272 38.758 105.638 37.8531C105.005 36.9482 103.758 36.7281 102.853 37.3615L105.147 40.6385ZM102.087 37.9028C101.187 38.5439 100.978 39.7928 101.619 40.6923C102.26 41.5918 103.509 41.8012 104.408 41.1601L102.087 37.9028ZM93.8693 49.8128C94.6709 49.0528 94.7045 47.7869 93.9445 46.9853C93.1845 46.1838 91.9186 46.1501 91.1171 46.9101L93.8693 49.8128ZM89.7546 48.228C88.9684 49.0039 88.96 50.2702 89.7359 51.0564C90.5118 51.8426 91.7781 51.851 92.5643 51.0751L89.7546 48.228ZM83.6634 61.3491C84.3171 60.4587 84.1253 59.207 83.235 58.5533C82.3446 57.8995 81.0929 58.0914 80.4392 58.9817L83.6634 61.3491ZM79.332 60.525C78.6981 61.4296 78.9176 62.6768 79.8222 63.3107C80.7268 63.9446 81.9739 63.7251 82.6078 62.8205L79.332 60.525ZM75.7855 74.5534C76.2574 73.5547 75.8304 72.3626 74.8317 71.8907C73.833 71.4188 72.6408 71.8459 72.1689 72.8446L75.7855 74.5534ZM71.3778 74.5694C70.9287 75.5786 71.3827 76.7607 72.3919 77.2098C73.401 77.6589 74.5832 77.2048 75.0323 76.1957L71.3778 74.5694ZM70.5771 89.0159C70.8523 87.9461 70.2082 86.8559 69.1385 86.5807C68.0687 86.3055 66.9784 86.9496 66.7033 88.0194L70.5771 89.0159ZM66.2498 89.8639C65.9976 90.9393 66.6649 92.0155 67.7403 92.2677C68.8157 92.5199 69.8919 91.8526 70.1441 90.7773L66.2498 89.8639ZM68.0638 104.225C68.1518 103.124 67.3305 102.16 66.2295 102.073C65.1284 101.985 64.1645 102.806 64.0765 103.907L68.0638 104.225ZM63.9418 105.847C63.8787 106.95 64.7214 107.895 65.8242 107.959C66.9269 108.022 67.8721 107.179 67.9353 106.076L63.9418 105.847ZM68.5296 119.987C68.3707 118.894 67.3558 118.136 66.2627 118.295C65.1697 118.454 64.4123 119.469 64.5712 120.562L68.5296 119.987ZM64.8814 122.508C65.0703 123.596 66.1056 124.326 67.1939 124.137C68.2822 123.948 69.0114 122.913 68.8225 121.824L64.8814 122.508ZM72.6002 135.217C72.1927 134.19 71.0301 133.688 70.0034 134.095C68.9768 134.503 68.4748 135.666 68.8823 136.692L72.6002 135.217ZM69.6317 138.508C70.067 139.523 71.2429 139.993 72.2581 139.558C73.2732 139.123 73.7433 137.947 73.308 136.932L69.6317 138.508ZM80.0718 149.102C79.4394 148.197 78.1926 147.975 77.287 148.608C76.3814 149.24 76.16 150.487 76.7924 151.393L80.0718 149.102ZM77.9403 152.989C78.5975 153.877 79.8499 154.064 80.7377 153.406C81.6255 152.749 81.8125 151.497 81.1553 150.609L77.9403 152.989ZM90.5663 160.814C89.73 160.092 88.4671 160.185 87.7456 161.021C87.024 161.858 87.1171 163.121 87.9534 163.842L90.5663 160.814ZM89.4721 165.109C90.3321 165.802 91.5912 165.667 92.2844 164.807C92.9775 163.947 92.8423 162.688 91.9823 161.995L89.4721 165.109ZM103.746 168.817C102.701 168.459 101.564 169.016 101.206 170.061C100.848 171.106 101.405 172.243 102.45 172.601L103.746 168.817ZM102.853 37.3615C102.599 37.5393 102.344 37.7197 102.087 37.9028L104.408 41.1601C104.656 40.9836 104.902 40.8098 105.147 40.6385L102.853 37.3615ZM91.1171 46.9101C90.6627 47.341 90.2084 47.7802 89.7546 48.228L92.5643 51.0751C92.9988 50.6463 93.4339 50.2256 93.8693 49.8128L91.1171 46.9101ZM80.4392 58.9817C80.0669 59.4888 79.6977 60.0032 79.332 60.525L82.6078 62.8205C82.9564 62.3231 83.3084 61.8326 83.6634 61.3491L80.4392 58.9817ZM72.1689 72.8446C71.9003 73.413 71.6365 73.988 71.3778 74.5694L75.0323 76.1957C75.2786 75.642 75.5298 75.0946 75.7855 74.5534L72.1689 72.8446ZM66.7033 88.0194C66.5465 88.6286 66.3953 89.2434 66.2498 89.8639L70.1441 90.7773C70.2831 90.1846 70.4275 89.5975 70.5771 89.0159L66.7033 88.0194ZM64.0765 103.907C64.0512 104.223 64.0274 104.541 64.0049 104.86L67.995 105.14C68.0166 104.834 68.0395 104.529 68.0638 104.225L64.0765 103.907ZM64.0049 104.86C63.9817 105.19 63.9606 105.519 63.9418 105.847L67.9353 106.076C67.9531 105.765 67.973 105.453 67.995 105.14L64.0049 104.86ZM64.5712 120.562C64.6662 121.215 64.7697 121.864 64.8814 122.508L68.8225 121.824C68.717 121.216 68.6193 120.604 68.5296 119.987L64.5712 120.562ZM68.8823 136.692C69.125 137.304 69.3749 137.909 69.6317 138.508L73.308 136.932C73.0654 136.366 72.8294 135.794 72.6002 135.217L68.8823 136.692ZM76.7924 151.393C77.1701 151.933 77.5528 152.465 77.9403 152.989L81.1553 150.609C80.7897 150.115 80.4284 149.613 80.0718 149.102L76.7924 151.393ZM87.9534 163.842C88.458 164.278 88.9645 164.7 89.4721 165.109L91.9823 161.995C91.5098 161.614 91.0376 161.22 90.5663 160.814L87.9534 163.842ZM102.45 172.601C102.775 172.712 103.098 172.817 103.42 172.914L104.58 169.086C104.305 169.003 104.027 168.913 103.746 168.817L102.45 172.601Z" fill="#2A4891"/>
<circle cx="160.5" cy="176.5" r="27" stroke="#F90955" stroke-width="3"/>
<path d="M170.621 191H149.659V188.078L160.733 175.773C162.374 173.913 163.501 172.404 164.117 171.247C164.747 170.075 165.062 168.866 165.062 167.621C165.062 165.951 164.556 164.582 163.545 163.512C162.535 162.443 161.187 161.908 159.502 161.908C157.481 161.908 155.906 162.487 154.778 163.644C153.665 164.787 153.108 166.383 153.108 168.434H149.043C149.043 165.49 149.988 163.109 151.878 161.293C153.782 159.477 156.324 158.568 159.502 158.568C162.476 158.568 164.827 159.352 166.556 160.919C168.284 162.472 169.148 164.545 169.148 167.138C169.148 170.287 167.142 174.037 163.128 178.388L154.559 187.682H170.621V191Z" fill="#25458F"/>
<path d="M218.52 379.377C218.035 379.112 217.858 378.504 218.123 378.02L222.447 370.126C222.712 369.642 223.32 369.464 223.804 369.73C224.289 369.995 224.466 370.603 224.201 371.087L220.357 378.103L227.374 381.947C227.858 382.212 228.036 382.82 227.77 383.304C227.505 383.789 226.897 383.966 226.413 383.701L218.52 379.377ZM278.716 278.5L279.713 278.427H279.713L278.716 278.5ZM218.941 183.829C218.483 183.52 218.362 182.898 218.671 182.441C218.98 181.983 219.602 181.862 220.059 182.171L218.941 183.829ZM220.869 182.719C221.326 183.029 221.444 183.651 221.134 184.108C220.824 184.565 220.202 184.684 219.745 184.373L220.869 182.719ZM231.616 192.989C231.181 192.648 231.105 192.02 231.446 191.585C231.787 191.151 232.416 191.075 232.85 191.416L231.616 192.989ZM234.401 192.647C234.831 192.993 234.9 193.622 234.554 194.053C234.208 194.483 233.578 194.552 233.148 194.206L234.401 192.647ZM244.089 203.919C243.696 203.531 243.691 202.897 244.08 202.504C244.468 202.111 245.101 202.107 245.494 202.495L244.089 203.919ZM246.891 203.896C247.278 204.29 247.272 204.923 246.878 205.31C246.484 205.697 245.851 205.692 245.464 205.298L246.891 203.896ZM255.048 216.319C254.713 215.88 254.797 215.252 255.236 214.917C255.675 214.581 256.302 214.665 256.638 215.104L255.048 216.319ZM257.828 216.69C258.155 217.135 258.061 217.761 257.616 218.088C257.171 218.416 256.545 218.321 256.218 217.876L257.828 216.69ZM264.064 230.178C263.8 229.693 263.978 229.086 264.463 228.821C264.948 228.556 265.555 228.735 265.82 229.219L264.064 230.178ZM266.754 230.969C267.01 231.459 266.821 232.063 266.331 232.319C265.842 232.574 265.238 232.385 264.982 231.895L266.754 230.969ZM270.844 245.253C270.657 244.734 270.926 244.161 271.445 243.973C271.965 243.785 272.538 244.054 272.725 244.574L270.844 245.253ZM273.385 246.453C273.564 246.975 273.285 247.544 272.762 247.722C272.239 247.901 271.671 247.622 271.492 247.099L273.385 246.453ZM275.324 261.182C275.212 260.641 275.559 260.112 276.1 259.999C276.641 259.887 277.17 260.235 277.282 260.776L275.324 261.182ZM277.669 262.719C277.773 263.262 277.417 263.786 276.875 263.889C276.332 263.993 275.808 263.637 275.705 263.095L277.669 262.719ZM277.644 277.588C277.6 277.038 278.01 276.556 278.561 276.512C279.111 276.468 279.593 276.878 279.637 277.429L277.644 277.588ZM279.786 279.49C279.821 280.042 279.402 280.517 278.851 280.552C278.3 280.586 277.825 280.168 277.79 279.617L279.786 279.49ZM277.614 295.164C277.662 294.614 278.147 294.207 278.697 294.254C279.247 294.302 279.654 294.787 279.606 295.337L277.614 295.164ZM279.402 297.437C279.343 297.986 278.85 298.384 278.301 298.325C277.752 298.265 277.355 297.772 277.414 297.223L279.402 297.437ZM274.57 312.505C274.712 311.972 275.26 311.655 275.794 311.797C276.327 311.94 276.644 312.488 276.502 313.021L274.57 312.505ZM275.936 315.058C275.782 315.589 275.228 315.895 274.697 315.741C274.167 315.588 273.861 315.034 274.014 314.503L275.936 315.058ZM268.573 329.065C268.805 328.564 269.399 328.346 269.901 328.578C270.402 328.809 270.62 329.404 270.388 329.905L268.573 329.065ZM269.483 331.812C269.241 332.308 268.643 332.515 268.146 332.273C267.65 332.031 267.443 331.432 267.685 330.936L269.483 331.812ZM259.852 344.37C260.164 343.915 260.787 343.8 261.242 344.112C261.697 344.425 261.813 345.048 261.5 345.503L259.852 344.37ZM260.284 347.234C259.963 347.682 259.338 347.785 258.889 347.463C258.44 347.142 258.337 346.517 258.659 346.068L260.284 347.234ZM248.674 357.984C249.06 357.589 249.693 357.582 250.088 357.968C250.483 358.354 250.49 358.988 250.104 359.382L248.674 357.984ZM248.613 360.875C248.219 361.262 247.586 361.256 247.199 360.861C246.812 360.467 246.819 359.834 247.213 359.447L248.613 360.875ZM235.25 369.345C235.706 369.033 236.328 369.149 236.64 369.604C236.952 370.06 236.836 370.682 236.381 370.995L235.25 369.345ZM234.62 372.167C234.156 372.467 233.537 372.335 233.237 371.871C232.937 371.407 233.07 370.788 233.534 370.488L234.62 372.167ZM219.685 377.245C220.211 377.078 220.773 377.368 220.941 377.894C221.109 378.421 220.818 378.983 220.292 379.151L219.685 377.245ZM220.059 182.171C220.328 182.352 220.598 182.535 220.869 182.719L219.745 184.373C219.476 184.191 219.208 184.009 218.941 183.829L220.059 182.171ZM232.85 191.416C233.366 191.821 233.883 192.231 234.401 192.647L233.148 194.206C232.637 193.795 232.126 193.39 231.616 192.989L232.85 191.416ZM245.494 202.495C245.961 202.957 246.427 203.423 246.891 203.896L245.464 205.298C245.007 204.832 244.549 204.373 244.089 203.919L245.494 202.495ZM256.638 215.104C257.037 215.627 257.434 216.156 257.828 216.69L256.218 217.876C255.831 217.352 255.441 216.832 255.048 216.319L256.638 215.104ZM265.82 229.219C266.135 229.797 266.447 230.38 266.754 230.969L264.982 231.895C264.68 231.317 264.374 230.745 264.064 230.178L265.82 229.219ZM272.725 244.574C272.95 245.195 273.17 245.821 273.385 246.453L271.492 247.099C271.281 246.478 271.065 245.863 270.844 245.253L272.725 244.574ZM277.282 260.776C277.416 261.419 277.545 262.067 277.669 262.719L275.705 263.095C275.582 262.452 275.455 261.815 275.324 261.182L277.282 260.776ZM279.637 277.429C279.664 277.761 279.689 278.093 279.713 278.427L277.719 278.573C277.695 278.244 277.67 277.915 277.644 277.588L279.637 277.429ZM279.713 278.427C279.739 278.782 279.764 279.137 279.786 279.49L277.79 279.617C277.768 279.269 277.744 278.921 277.719 278.573L279.713 278.427ZM279.606 295.337C279.545 296.041 279.477 296.741 279.402 297.437L277.414 297.223C277.487 296.54 277.554 295.854 277.614 295.164L279.606 295.337ZM276.502 313.021C276.32 313.704 276.131 314.383 275.936 315.058L274.014 314.503C274.206 313.841 274.391 313.175 274.57 312.505L276.502 313.021ZM270.388 329.905C270.092 330.546 269.79 331.181 269.483 331.812L267.685 330.936C267.986 330.317 268.282 329.694 268.573 329.065L270.388 329.905ZM261.5 345.503C261.099 346.086 260.694 346.663 260.284 347.234L258.659 346.068C259.061 345.508 259.458 344.942 259.852 344.37L261.5 345.503ZM250.104 359.382C249.609 359.888 249.112 360.386 248.613 360.875L247.213 359.447C247.702 358.967 248.189 358.48 248.674 357.984L250.104 359.382ZM236.381 370.995C235.793 371.397 235.206 371.788 234.62 372.167L233.534 370.488C234.105 370.119 234.677 369.737 235.25 369.345L236.381 370.995ZM220.292 379.151C219.953 379.259 219.616 379.362 219.28 379.46L218.72 377.54C219.039 377.447 219.361 377.348 219.685 377.245L220.292 379.151ZM218.039 380.254C217.07 379.723 216.715 378.508 217.246 377.539L225.894 361.753C226.424 360.784 227.64 360.429 228.609 360.959C229.577 361.49 229.932 362.705 229.402 363.674L221.715 377.707L235.747 385.394C236.716 385.924 237.071 387.14 236.541 388.109C236.01 389.077 234.795 389.432 233.826 388.902L218.039 380.254ZM278.716 278.5L280.711 278.354H280.711L278.716 278.5ZM218.381 184.658C217.466 184.04 217.224 182.797 217.842 181.881C218.46 180.966 219.703 180.724 220.619 181.342L218.381 184.658ZM221.431 181.892C222.344 182.513 222.582 183.757 221.961 184.67C221.34 185.584 220.097 185.821 219.183 185.201L221.431 181.892ZM230.998 193.776C230.129 193.094 229.977 191.837 230.659 190.968C231.341 190.099 232.598 189.947 233.467 190.629L230.998 193.776ZM235.027 191.868C235.888 192.559 236.025 193.818 235.333 194.679C234.641 195.54 233.383 195.677 232.522 194.985L235.027 191.868ZM243.386 204.63C242.6 203.854 242.592 202.588 243.368 201.802C244.144 201.016 245.41 201.008 246.196 201.784L243.386 204.63ZM247.604 203.195C248.378 203.983 248.367 205.249 247.579 206.023C246.791 206.798 245.525 206.786 244.751 205.998L247.604 203.195ZM254.254 216.926C253.583 216.048 253.751 214.793 254.629 214.122C255.506 213.452 256.761 213.619 257.432 214.497L254.254 216.926ZM258.633 216.097C259.288 216.986 259.098 218.238 258.209 218.893C257.32 219.549 256.068 219.359 255.413 218.47L258.633 216.097ZM263.187 230.657C262.657 229.687 263.014 228.472 263.984 227.943C264.953 227.414 266.168 227.771 266.697 228.74L263.187 230.657ZM267.641 230.506C268.152 231.485 267.773 232.693 266.794 233.205C265.815 233.716 264.607 233.337 264.096 232.358L267.641 230.506ZM269.904 245.593C269.528 244.554 270.067 243.408 271.105 243.032C272.144 242.657 273.291 243.195 273.666 244.234L269.904 245.593ZM274.332 246.13C274.688 247.175 274.13 248.312 273.085 248.669C272.04 249.025 270.903 248.467 270.546 247.422L274.332 246.13ZM274.345 261.385C274.121 260.303 274.816 259.244 275.897 259.02C276.979 258.796 278.037 259.491 278.262 260.573L274.345 261.385ZM278.652 262.532C278.859 263.617 278.147 264.664 277.062 264.872C275.977 265.079 274.93 264.367 274.723 263.282L278.652 262.532ZM276.647 277.668C276.559 276.567 277.38 275.603 278.481 275.515C279.582 275.427 280.546 276.248 280.634 277.349L276.647 277.668ZM280.784 279.427C280.854 280.53 280.016 281.48 278.914 281.55C277.812 281.619 276.862 280.782 276.792 279.68L280.784 279.427ZM276.618 295.077C276.714 293.977 277.683 293.162 278.784 293.258C279.884 293.354 280.698 294.324 280.603 295.424L276.618 295.077ZM280.396 297.544C280.278 298.642 279.292 299.437 278.194 299.319C277.096 299.201 276.301 298.215 276.419 297.116L280.396 297.544ZM273.603 312.247C273.888 311.18 274.984 310.546 276.052 310.831C277.119 311.116 277.753 312.212 277.468 313.279L273.603 312.247ZM276.896 315.336C276.59 316.397 275.481 317.009 274.42 316.702C273.359 316.395 272.747 315.286 273.054 314.225L276.896 315.336ZM267.666 328.645C268.129 327.643 269.318 327.206 270.321 327.67C271.323 328.134 271.76 329.322 271.296 330.325L267.666 328.645ZM270.382 332.25C269.898 333.243 268.701 333.656 267.708 333.172C266.715 332.688 266.302 331.491 266.786 330.498L270.382 332.25ZM259.028 343.803C259.653 342.893 260.898 342.663 261.809 343.288C262.719 343.914 262.949 345.159 262.324 346.07L259.028 343.803ZM261.097 347.816C260.453 348.714 259.204 348.92 258.306 348.276C257.409 347.632 257.203 346.383 257.847 345.485L261.097 347.816ZM247.959 357.285C248.731 356.495 249.997 356.481 250.787 357.253C251.577 358.026 251.591 359.292 250.819 360.082L247.959 357.285ZM249.313 361.589C248.524 362.362 247.258 362.35 246.485 361.561C245.712 360.773 245.724 359.506 246.513 358.733L249.313 361.589ZM234.685 368.52C235.596 367.896 236.841 368.128 237.465 369.039C238.09 369.95 237.857 371.195 236.946 371.82L234.685 368.52ZM235.163 373.007C234.235 373.607 232.997 373.341 232.397 372.414C231.797 371.486 232.063 370.248 232.991 369.648L235.163 373.007ZM219.381 376.293C220.433 375.957 221.558 376.538 221.894 377.591C222.229 378.643 221.648 379.768 220.596 380.104L219.381 376.293ZM220.619 181.342C220.888 181.524 221.159 181.707 221.431 181.892L219.183 185.201C218.915 185.018 218.647 184.837 218.381 184.658L220.619 181.342ZM233.467 190.629C233.986 191.036 234.507 191.449 235.027 191.868L232.522 194.985C232.013 194.577 231.506 194.174 230.998 193.776L233.467 190.629ZM246.196 201.784C246.667 202.249 247.136 202.719 247.604 203.195L244.751 205.998C244.297 205.537 243.842 205.081 243.386 204.63L246.196 201.784ZM257.432 214.497C257.835 215.024 258.236 215.558 258.633 216.097L255.413 218.47C255.029 217.949 254.643 217.435 254.254 216.926L257.432 214.497ZM266.697 228.74C267.016 229.323 267.33 229.912 267.641 230.506L264.096 232.358C263.796 231.786 263.493 231.219 263.187 230.657L266.697 228.74ZM273.666 244.234C273.892 244.861 274.114 245.493 274.332 246.13L270.546 247.422C270.336 246.807 270.122 246.197 269.904 245.593L273.666 244.234ZM278.262 260.573C278.396 261.221 278.526 261.874 278.652 262.532L274.723 263.282C274.601 262.645 274.475 262.012 274.345 261.385L278.262 260.573ZM280.634 277.349C280.661 277.683 280.686 278.018 280.711 278.354L276.721 278.646C276.698 278.319 276.673 277.993 276.647 277.668L280.634 277.349ZM280.711 278.354C280.737 278.713 280.761 279.07 280.784 279.427L276.792 279.68C276.77 279.336 276.747 278.991 276.721 278.646L280.711 278.354ZM280.603 295.424C280.541 296.134 280.472 296.841 280.396 297.544L276.419 297.116C276.492 296.44 276.558 295.76 276.618 295.077L280.603 295.424ZM277.468 313.279C277.284 313.969 277.093 314.655 276.896 315.336L273.054 314.225C273.243 313.57 273.426 312.911 273.603 312.247L277.468 313.279ZM271.296 330.325C270.997 330.972 270.692 331.613 270.382 332.25L266.786 330.498C267.084 329.885 267.378 329.268 267.666 328.645L271.296 330.325ZM262.324 346.07C261.919 346.658 261.51 347.24 261.097 347.816L257.847 345.485C258.244 344.931 258.638 344.37 259.028 343.803L262.324 346.07ZM250.819 360.082C250.319 360.592 249.817 361.095 249.313 361.589L246.513 358.733C246.997 358.258 247.479 357.776 247.959 357.285L250.819 360.082ZM236.946 371.82C236.351 372.227 235.757 372.623 235.163 373.007L232.991 369.648C233.554 369.284 234.119 368.908 234.685 368.52L236.946 371.82ZM220.596 380.104C220.249 380.214 219.904 380.319 219.561 380.42L218.439 376.58C218.751 376.489 219.065 376.393 219.381 376.293L220.596 380.104Z" fill="#2A4891"/>
</svg>
